<?xml version="1.0" encoding="UTF-8" standalone="no"?>
<svg
   xmlns:dc="http://purl.org/dc/elements/1.1/"
   xmlns:cc="http://creativecommons.org/ns#"
   xmlns:rdf="http://www.w3.org/1999/02/22-rdf-syntax-ns#"
   xmlns:svg="http://www.w3.org/2000/svg"
   xmlns="http://www.w3.org/2000/svg"
   id="svg8"
   version="1.1"
   viewBox="0 0 350 121.191"
   height="121.191mm"
   width="350mm">
  <defs
     id="defs2" />
  <metadata
     id="metadata5">
    <rdf:RDF>
      <cc:Work
         rdf:about="">
        <dc:format>image/svg+xml</dc:format>
        <dc:type
           rdf:resource="http://purl.org/dc/dcmitype/StillImage" />
        <dc:title></dc:title>
      </cc:Work>
    </rdf:RDF>
  </metadata>
  <g
     transform="translate(0,-175.809)"
     style="display:inline"
     id="layer1">
    <flowRoot
       transform="scale(0.26458333)"
       style="font-style:normal;font-variant:normal;font-weight:800;font-stretch:normal;font-size:40px;line-height:1.25;font-family:'Open Sans';-inkscape-font-specification:'Open Sans Ultra-Bold';letter-spacing:0px;word-spacing:0px;fill:#000000;fill-opacity:1;stroke:none"
       id="flowRoot3713"
       xml:space="preserve"><flowRegion
         style="font-style:normal;font-variant:normal;font-weight:800;font-stretch:normal;font-family:'Open Sans';-inkscape-font-specification:'Open Sans Ultra-Bold'"
         id="flowRegion3715"><rect
           style="font-style:normal;font-variant:normal;font-weight:800;font-stretch:normal;font-family:'Open Sans';-inkscape-font-specification:'Open Sans Ultra-Bold'"
           y="375.00681"
           x="115.15739"
           height="274.76144"
           width="499.01538"
           id="rect3717" /></flowRegion><flowPara
         id="flowPara3719" /></flowRoot>    <flowRoot
       transform="scale(0.26458333)"
       style="font-style:normal;font-variant:normal;font-weight:800;font-stretch:normal;font-size:40px;line-height:1.25;font-family:'Open Sans';-inkscape-font-specification:'Open Sans Ultra-Bold';letter-spacing:0px;word-spacing:0px;fill:#000000;fill-opacity:1;stroke:none"
       id="flowRoot3721"
       xml:space="preserve"><flowRegion
         style="font-style:normal;font-variant:normal;font-weight:800;font-stretch:normal;font-family:'Open Sans';-inkscape-font-specification:'Open Sans Ultra-Bold'"
         id="flowRegion3723"><rect
           style="font-style:normal;font-variant:normal;font-weight:800;font-stretch:normal;font-family:'Open Sans';-inkscape-font-specification:'Open Sans Ultra-Bold'"
           y="223.48392"
           x="46.467018"
           height="284.86301"
           width="604.07123"
           id="rect3725" /></flowRegion><flowPara
         id="flowPara3727" /></flowRoot>    <flowRoot
       transform="scale(0.26458333)"
       style="font-style:normal;font-weight:normal;font-size:40px;line-height:1.25;font-family:sans-serif;letter-spacing:0px;word-spacing:0px;fill:#000000;fill-opacity:1;stroke:none"
       id="flowRoot3737"
       xml:space="preserve"><flowRegion
         id="flowRegion3739"><rect
           y="284.09308"
           x="48.487324"
           height="113.13708"
           width="149.50258"
           id="rect3741" /></flowRegion><flowPara
         id="flowPara3743" /></flowRoot>    <rect
       y="175.80942"
       x="0"
       height="121.19058"
       width="350"
       id="rect3745"
       style="fill:#ffff00;stroke-width:0.5879066" />
  </g>
  <g
     transform="translate(0,-175.809)"
     id="layer2">
    <g
       id="flowRoot3729"
       style="font-style:normal;font-weight:normal;font-size:40px;line-height:1.25;font-family:sans-serif;letter-spacing:0px;word-spacing:0px;fill:#1a1a1a;fill-opacity:1;stroke:none"
       transform="matrix(2.7256965,0,0,2.7256965,-130.99669,-490.97981)"
       aria-label="PITCH">
      <path
         id="path899"
         style="font-style:normal;font-variant:normal;font-weight:800;font-stretch:normal;font-family:'Open Sans';-inkscape-font-specification:'Open Sans Ultra-Bold';fill:#1a1a1a"
         d="m 76.335937,261.67634 q 0,4.78515 -2.832031,7.40234 -2.8125,2.59766 -8.007812,2.59766 h -2.167969 v 9.47265 h -7.714844 v -28.55468 h 9.882813 q 5.410156,0 8.125,2.36328 2.714843,2.36328 2.714843,6.71875 z m -13.007812,3.71093 h 1.40625 q 1.738281,0 2.753906,-0.97656 1.035156,-0.97656 1.035156,-2.69531 0,-2.89063 -3.203125,-2.89063 h -1.992187 z" />
      <path
         id="path901"
         style="font-style:normal;font-variant:normal;font-weight:800;font-stretch:normal;font-family:'Open Sans';-inkscape-font-specification:'Open Sans Ultra-Bold';fill:#1a1a1a"
         d="m 80.925781,281.14899 v -28.55468 h 7.753906 v 28.55468 z" />
      <path
         id="path903"
         style="font-style:normal;font-variant:normal;font-weight:800;font-stretch:normal;font-family:'Open Sans';-inkscape-font-specification:'Open Sans Ultra-Bold';fill:#1a1a1a"
         d="M 107.42969,281.14899 H 99.714844 V 258.9029 h -6.972657 v -6.30859 h 21.640623 v 6.30859 h -6.95312 z" />
      <path
         id="path905"
         style="font-style:normal;font-variant:normal;font-weight:800;font-stretch:normal;font-family:'Open Sans';-inkscape-font-specification:'Open Sans Ultra-Bold';fill:#1a1a1a"
         d="m 131.21875,258.51227 q -2.75391,0 -4.29687,2.26563 -1.54297,2.24609 -1.54297,6.21094 0,8.24218 6.26953,8.24218 1.89453,0 3.67187,-0.52734 1.77735,-0.52734 3.57422,-1.26953 v 6.52344 q -3.57422,1.58203 -8.08594,1.58203 -6.46484,0 -9.92187,-3.75 -3.4375,-3.75 -3.4375,-10.83985 0,-4.43359 1.66016,-7.79296 1.67968,-3.35938 4.80468,-5.15625 3.14453,-1.81641 7.38281,-1.81641 4.62891,0 8.84766,2.01172 l -2.36328,6.07422 q -1.58203,-0.74219 -3.16406,-1.25 -1.58203,-0.50782 -3.39844,-0.50782 z" />
      <path
         id="path907"
         style="font-style:normal;font-variant:normal;font-weight:800;font-stretch:normal;font-family:'Open Sans';-inkscape-font-specification:'Open Sans Ultra-Bold';fill:#1a1a1a"
         d="m 168.91406,281.14899 h -7.7539 v -11.64062 h -8.96485 v 11.64062 h -7.7539 v -28.55468 h 7.7539 v 10.58593 h 8.96485 v -10.58593 h 7.7539 z" />
    </g>
  </g>
</svg>
