<?xml version="1.0" encoding="UTF-8" standalone="no"?>
<svg
   xmlns:dc="http://purl.org/dc/elements/1.1/"
   xmlns:cc="http://creativecommons.org/ns#"
   xmlns:rdf="http://www.w3.org/1999/02/22-rdf-syntax-ns#"
   xmlns:svg="http://www.w3.org/2000/svg"
   xmlns="http://www.w3.org/2000/svg"
   id="svg8"
   version="1.1"
   viewBox="0 0 165.05 34.354"
   height="34.354mm"
   width="165.05mm">
  <defs
     id="defs2" />
  <metadata
     id="metadata5">
    <rdf:RDF>
      <cc:Work
         rdf:about="">
        <dc:format>image/svg+xml</dc:format>
        <dc:type
           rdf:resource="http://purl.org/dc/dcmitype/StillImage" />
        <dc:title></dc:title>
      </cc:Work>
    </rdf:RDF>
  </metadata>
  <g
     transform="translate(0,-262.646)"
     id="layer1">
    <g
       id="text12"
       style="font-style:normal;font-weight:normal;font-size:10.58333302px;line-height:192.8500061;font-family:sans-serif;letter-spacing:0px;word-spacing:0px;fill:#000000;fill-opacity:1;stroke:none;stroke-width:0.26458332"
       aria-label="Pitch.">
      <path
         id="path4647"
         style="font-style:normal;font-variant:normal;font-weight:normal;font-stretch:normal;font-size:50.79999924px;font-family:'Courier Prime Code';-inkscape-font-specification:'Courier Prime Code';stroke-width:0.26458332"
         d="m 10.045898,267.01112 q 3.398242,0 5.804297,1.24024 2.430859,1.24023 3.671094,3.47265 1.240234,2.23242 1.240234,5.18418 0,2.92695 -1.240234,5.15938 -1.240235,2.20761 -3.671094,3.42304 -2.406055,1.21543 -5.804297,1.21543 H 3.720703 v 8.38399 q 0,0.86816 -0.4216797,1.24023 -0.396875,0.37207 -1.4138672,0.37207 h -0.049609 q -1.01699221,0 -1.43867189,-0.37207 Q -8.7544322e-8,295.95819 -8.7544322e-8,295.09003 v -26.39219 q 0,-0.91777 0.347265617544322,-1.28984 0.37207031,-0.39688 1.21542967,-0.39688 H 3.720703 Z m -0.5208982,16.12305 q 3.6214842,0 5.5066402,-1.61231 1.909961,-1.63711 1.909961,-4.61367 0,-3.02617 -1.909961,-4.66328 Q 13.146484,270.583 9.5249998,270.583 H 3.720703 v 12.55117 z" />
      <path
         id="path4649"
         style="font-style:normal;font-variant:normal;font-weight:normal;font-stretch:normal;font-size:50.79999924px;font-family:'Courier Prime Code';-inkscape-font-specification:'Courier Prime Code';stroke-width:0.26458332"
         d="m 40.754101,273.53475 q 0.843359,0 1.190625,0.39688 0.37207,0.37207 0.37207,1.28984 v 17.66094 H 50.2791 q 0.84336,0 1.190625,0.42168 0.372071,0.39687 0.372071,1.36426 0,0.96738 -0.372071,1.38906 -0.347265,0.39687 -1.190625,0.39687 H 30.832226 q -0.84336,0 -1.21543,-0.39687 -0.347266,-0.42168 -0.347266,-1.38906 0,-0.96739 0.347266,-1.36426 0.37207,-0.42168 1.21543,-0.42168 h 7.763867 v -15.77578 h -6.275586 q -0.843359,0 -1.21543,-0.39688 -0.347265,-0.42168 -0.347265,-1.38906 0,-0.96738 0.347265,-1.36426 0.372071,-0.42168 1.21543,-0.42168 z m 1.562695,-6.05234 q 0,0.89297 -0.496094,1.26504 -0.496094,0.34726 -1.860351,0.34726 -1.364258,0 -1.860352,-0.34726 -0.496094,-0.37207 -0.496094,-1.26504 v -3.22461 q 0,-0.89297 0.496094,-1.24023 0.496094,-0.37207 1.860352,-0.37207 1.364257,0 1.860351,0.37207 0.496094,0.34726 0.496094,1.24023 z" />
      <path
         id="path4651"
         style="font-style:normal;font-variant:normal;font-weight:normal;font-stretch:normal;font-size:50.79999924px;font-family:'Courier Prime Code';-inkscape-font-specification:'Courier Prime Code';stroke-width:0.26458332"
         d="m 81.954686,291.81581 q 0.322461,0.64492 0.322461,1.11621 0,0.79375 -0.818555,1.28984 -1.934766,1.21543 -4.316016,2.00918 -2.38125,0.76895 -4.440039,0.76895 -4.216797,0 -6.176367,-2.18281 -1.934765,-2.20762 -1.934765,-6.57325 V 279.091 h -5.035352 q -0.843359,0 -1.21543,-0.39687 -0.347265,-0.42168 -0.347265,-1.38906 0,-0.96739 0.347265,-1.36426 0.372071,-0.42168 1.21543,-0.42168 h 5.035352 v -7.44141 q 0,-0.86816 0.421679,-1.24023 0.42168,-0.37207 1.438672,-0.37207 1.016992,0 1.438672,0.37207 0.42168,0.37207 0.42168,1.24023 v 7.44141 h 10.194726 q 0.843359,0 1.190625,0.42168 0.37207,0.39687 0.37207,1.36426 0,0.96738 -0.37207,1.38906 -0.347266,0.39687 -1.190625,0.39687 H 68.312108 v 8.83047 q 0,2.82774 0.992187,4.14239 0.992188,1.31464 3.398242,1.31464 1.661914,0 3.497461,-0.66972 1.835547,-0.66973 3.54707,-1.78594 0.347266,-0.24805 0.768946,-0.24805 0.843359,0 1.438672,1.14102 z" />
      <path
         id="path4653"
         style="font-style:normal;font-variant:normal;font-weight:normal;font-stretch:normal;font-size:50.79999924px;font-family:'Courier Prime Code';-inkscape-font-specification:'Courier Prime Code';stroke-width:0.26458332"
         d="m 101.15351,272.98905 q 2.6541,0 5.08496,0.69453 2.45566,0.69453 4.53926,2.03399 0.86816,0.5457 0.86816,1.41386 0,0.57051 -0.37207,1.24024 -0.49609,1.01699 -1.28984,1.01699 -0.47129,0 -0.91778,-0.32246 -3.49746,-2.40606 -7.91269,-2.40606 -2.381251,0 -4.216798,1.06661 -1.810742,1.0666 -2.827734,2.97656 -0.992187,1.88515 -0.992187,4.29121 0,2.40605 0.992187,4.31601 1.016992,1.88516 2.827734,2.95176 1.835547,1.0666 4.216798,1.0666 2.28203,0 4.41523,-0.69453 2.15801,-0.71933 3.91914,-2.05879 0.4961,-0.37207 0.94258,-0.37207 0.76895,0 1.31465,0.94258 0.42168,0.71934 0.42168,1.28985 0,0.81855 -0.79375,1.38906 -2.03398,1.48828 -4.73769,2.33164 -2.67891,0.84336 -5.48184,0.84336 -3.547071,0 -6.275587,-1.5627 -2.70371,-1.56269 -4.191992,-4.29121 -1.488281,-2.72851 -1.488281,-6.15156 0,-3.42305 1.488281,-6.15156 1.488282,-2.72852 4.191992,-4.29121 2.728516,-1.5627 6.275587,-1.5627 z" />
      <path
         id="path4655"
         style="font-style:normal;font-variant:normal;font-weight:normal;font-stretch:normal;font-size:50.79999924px;font-family:'Courier Prime Code';-inkscape-font-specification:'Courier Prime Code';stroke-width:0.26458332"
         d="m 122.90722,263.66249 q 1.017,0 1.41387,0.37207 0.42168,0.37207 0.42168,1.24023 v 13.32012 q 1.71152,-2.53008 4.2416,-4.06797 2.55488,-1.53789 5.06016,-1.53789 3.74551,0 5.80429,2.15801 2.05879,2.15801 2.05879,5.92832 v 14.01465 q 0,0.86816 -0.42168,1.24023 -0.39687,0.37207 -1.41386,0.37207 h -0.0496 q -1.01699,0 -1.43867,-0.37207 -0.39688,-0.37207 -0.39688,-1.24023 v -13.64258 q 0,-2.23242 -1.11621,-3.49746 -1.09141,-1.28985 -3.39824,-1.28985 -2.13321,0 -4.2168,1.36426 -2.05879,1.33946 -3.39824,3.6711 -1.31465,2.30683 -1.31465,5.03535 v 8.35918 q 0,0.86816 -0.42168,1.24023 -0.39687,0.37207 -1.41387,0.37207 h -0.0496 q -1.01699,0 -1.43867,-0.37207 -0.39687,-0.37207 -0.39687,-1.24023 v -29.81524 q 0,-0.86816 0.39687,-1.24023 0.42168,-0.37207 1.43867,-0.37207 z" />
      <path
         id="path4657"
         style="fill:#0a64a4;fill-opacity:1"
         d="m 161.70176,289.01288 q 1.78594,0 2.55488,0.37207 0.79375,0.34726 0.79375,1.19062 v 4.56407 q 0,0.84336 -0.79375,1.21543 -0.76894,0.34726 -2.55488,0.34726 -1.78594,0 -2.57969,-0.34726 -0.76895,-0.37207 -0.76895,-1.21543 v -4.56407 q 0,-0.84336 0.76895,-1.19062 0.79375,-0.37207 2.57969,-0.37207 z" />
    </g>
  </g>
</svg>
